<?xml version="1.0" encoding="utf-8"?>
<!-- Generator: Adobe Illustrator 23.0.2, SVG Export Plug-In . SVG Version: 6.00 Build 0)  -->
<svg version="1.1" id="Capa_1" xmlns="http://www.w3.org/2000/svg" xmlns:xlink="http://www.w3.org/1999/xlink" x="0px" y="0px"
	 viewBox="0 0 32 32" style="enable-background:new 0 0 32 32;" xml:space="preserve">
<style type="text/css">
	.st0{fill:#E84210;}
</style>
<g>
	<g>
		<path class="st0" d="M31.7,27L17.8,2.9c-0.4-0.6-1-1-1.8-1c-0.7,0-1.4,0.4-1.8,1l-14,24.2c-0.4,0.6-0.4,1.4,0,2c0.4,0.6,1,1,1.8,1
			H30c1.1,0,2-0.9,2-2C32,27.7,31.9,27.3,31.7,27z M17,10.9l-0.3,11h-1.8l-0.3-11C14.6,10.9,17,10.9,17,10.9z M15.8,26.5
			c-0.8,0-1.4-0.6-1.4-1.5c0-0.9,0.6-1.5,1.4-1.5c0.8,0,1.4,0.6,1.4,1.5C17.2,25.9,16.6,26.5,15.8,26.5z"/>
	</g>
</g>
</svg>
